<?xml version="1.0" standalone="no"?>
<!DOCTYPE svg PUBLIC "-//W3C//DTD SVG 20010904//EN"
 "http://www.w3.org/TR/2001/REC-SVG-20010904/DTD/svg10.dtd">
<svg version="1.0" xmlns="http://www.w3.org/2000/svg"
 width="512.000000pt" height="512.000000pt" viewBox="0 0 512.000000 512.000000"
 preserveAspectRatio="xMidYMid meet">

<g transform="translate(0.000000,512.000000) scale(0.100000,-0.100000)"
fill="#A82525" stroke="none">
<path d="M2523 5110 c-12 -5 -26 -18 -32 -29 -8 -13 -11 -257 -11 -765 0 -410
-3 -746 -6 -746 -3 0 -18 9 -33 19 -97 70 -273 80 -393 24 -157 -74 -248 -214
-248 -383 0 -123 43 -222 133 -307 79 -75 152 -106 263 -111 136 -6 221 25
317 117 l47 45 48 -45 c89 -85 171 -119 292 -119 237 0 420 183 420 420 0 169
-91 309 -247 383 -119 55 -284 47 -385 -19 -21 -13 -40 -24 -43 -24 -3 0 -5
337 -5 749 0 698 -1 750 -17 770 -21 24 -68 35 -100 21z"/>
<path d="M831 5079 c-34 -14 -50 -39 -51 -78 0 -31 15 -50 160 -196 l160 -161
0 -504 0 -504 198 -199 c108 -109 209 -205 224 -213 53 -28 118 16 118 79 0
27 -26 57 -190 222 l-190 191 0 504 0 504 -167 169 c-138 139 -213 201 -235
196 -2 0 -14 -5 -27 -10z"/>
<path d="M4225 5076 c-16 -8 -105 -90 -197 -183 l-168 -169 0 -504 0 -504
-190 -191 c-164 -165 -190 -195 -190 -222 0 -63 65 -107 118 -79 15 8 116 104
225 213 l197 199 0 504 0 504 160 161 c145 147 160 165 160 196 0 33 -29 79
-50 79 -4 0 -14 2 -22 5 -7 2 -26 -2 -43 -9z"/>
<path d="M49 2960 c-35 -21 -41 -61 -24 -165 88 -546 527 -962 1057 -1004 205
-17 412 21 594 108 110 53 246 140 270 175 11 17 14 73 14 302 0 155 -3 290
-6 299 -4 9 -39 40 -79 70 -40 29 -92 79 -116 111 -24 32 -56 70 -71 86 l-26
28 -799 0 c-483 0 -804 -4 -814 -10z"/>
<path d="M3426 2938 c-14 -18 -43 -56 -65 -85 -23 -29 -76 -78 -118 -110 l-78
-59 -3 -293 c-2 -239 0 -298 12 -316 22 -34 157 -122 270 -176 570 -272 1244
-37 1532 534 59 116 100 240 119 362 17 106 11 146 -26 165 -11 6 -325 10
-818 10 l-800 0 -25 -32z"/>
<path d="M2510 2709 c-87 -41 -156 -60 -239 -69 -133 -14 -131 -11 -131 -245
0 -251 -18 -232 227 -237 176 -3 182 -4 207 -27 29 -27 35 -83 13 -112 -26
-34 -54 -39 -227 -39 -168 0 -171 0 -195 -25 l-25 -24 0 -774 c0 -841 -1 -825
56 -923 36 -61 126 -141 191 -171 78 -35 216 -44 294 -18 116 37 209 120 262
233 l32 67 3 1121 2 1120 -23 23 c-19 17 -43 24 -108 31 -85 8 -155 28 -219
60 -58 29 -73 30 -120 9z"/>
<path d="M1621 1690 c-127 -105 -235 -199 -241 -210 -6 -12 -10 -204 -10 -532
l-1 -513 -57 -62 c-31 -34 -97 -105 -145 -157 -79 -85 -89 -100 -89 -133 0
-63 64 -102 118 -70 26 15 317 326 333 354 8 16 11 168 11 531 l0 509 188 154
c103 85 197 164 210 176 31 31 30 86 -3 118 -49 50 -64 42 -314 -165z"/>
<path d="M3185 1855 c-33 -32 -34 -87 -2 -118 12 -12 106 -91 210 -176 l187
-154 0 -511 c0 -464 2 -514 17 -536 30 -44 306 -335 332 -349 53 -29 126 29
114 91 -2 13 -69 93 -149 178 l-144 155 0 513 c0 329 -4 520 -10 532 -6 11
-114 105 -241 210 -250 207 -265 215 -314 165z"/>
</g>
</svg>
